<?xml version="1.0" standalone="no"?>
<!DOCTYPE svg PUBLIC "-//W3C//DTD SVG 20010904//EN"
 "http://www.w3.org/TR/2001/REC-SVG-20010904/DTD/svg10.dtd">
<svg version="1.0" xmlns="http://www.w3.org/2000/svg"
 width="80.000000pt" height="80.000000pt" viewBox="0 0 80.000000 80.000000"
 preserveAspectRatio="xMidYMid meet">
<metadata>
Created by potrace 1.11, written by Peter Selinger 2001-2013
</metadata>
<g transform="translate(0.000000,80.000000) scale(0.100000,-0.100000)"
fill="#000000" stroke="none">
<path d="M162 657 c-21 -22 -22 -31 -22 -249 0 -213 1 -227 21 -252 26 -33 62
-34 94 -1 24 23 25 30 25 147 l0 123 43 -48 c35 -39 48 -47 77 -47 29 0 42 8
77 48 l42 47 1 -121 c0 -109 2 -124 22 -149 18 -23 26 -26 56 -22 60 10 61 17
61 272 0 261 -2 270 -67 270 -32 0 -44 -7 -77 -45 -22 -25 -57 -63 -77 -85
l-38 -40 -37 40 c-21 22 -49 54 -63 70 -55 67 -101 81 -138 42z"/>
</g>
</svg>
